<svg width="25" height="25" viewBox="0 0 25 25" fill="none" xmlns="http://www.w3.org/2000/svg">
<path d="M11.75 18.5C11.75 18.9142 12.0858 19.25 12.5 19.25C12.9142 19.25 13.25 18.9142 13.25 18.5V15.5C13.25 15.0858 12.9142 14.75 12.5 14.75C12.0858 14.75 11.75 15.0858 11.75 15.5V18.5Z" fill="#A9ABB0"/>
<path fill-rule="evenodd" clip-rule="evenodd" d="M12.5 1.75C11.7749 1.75 11.1134 1.94911 10.3893 2.2871C9.68832 2.61428 8.87772 3.09716 7.86183 3.70233L6.40622 4.56943C5.28711 5.23606 4.39535 5.76727 3.72015 6.27524C3.02314 6.79963 2.49999 7.3396 2.15907 8.05072C1.81799 8.76219 1.72554 9.5068 1.75519 10.3758C1.7839 11.217 1.93105 12.2397 2.11556 13.5219L2.40792 15.5537C2.64531 17.2036 2.83368 18.5128 3.11512 19.5322C3.40523 20.5829 3.81686 21.4169 4.55965 22.0565C5.30184 22.6956 6.18984 22.9814 7.27634 23.1177C8.33154 23.25 9.66281 23.25 11.3423 23.25H13.6577C15.3372 23.25 16.6685 23.25 17.7237 23.1177C18.8102 22.9814 19.6982 22.6956 20.4404 22.0565C21.1831 21.4169 21.5948 20.5829 21.8849 19.5322C22.1663 18.5129 22.3547 17.2036 22.5921 15.5537L22.8844 13.5219C23.069 12.2396 23.2161 11.217 23.2448 10.3758C23.2745 9.5068 23.182 8.76219 22.8409 8.05072C22.5 7.3396 21.9769 6.79963 21.2799 6.27524C20.6047 5.76727 19.7129 5.23606 18.5938 4.56943L17.1382 3.70233C16.1223 3.09716 15.3117 2.61428 14.6107 2.2871C13.8866 1.94911 13.2251 1.75 12.5 1.75ZM8.59558 5.01121C9.65309 4.38126 10.3992 3.93781 11.0237 3.64633C11.6328 3.36203 12.0708 3.25 12.5 3.25C12.9293 3.25 13.3672 3.36203 13.9763 3.64633C14.6008 3.93781 15.3469 4.38126 16.4044 5.01121L17.7893 5.83615C18.9536 6.52973 19.7752 7.02034 20.3781 7.4739C20.9665 7.91662 21.2888 8.28294 21.4883 8.69917C21.6877 9.11505 21.7706 9.59337 21.7457 10.3247C21.7201 11.0745 21.5856 12.0163 21.3936 13.3511L21.1148 15.2884C20.8683 17.0016 20.6921 18.2162 20.439 19.133C20.1916 20.0289 19.8939 20.5476 19.4616 20.9198C19.0287 21.2926 18.4676 21.5127 17.537 21.6294C16.586 21.7486 15.3488 21.75 13.6061 21.75H11.3939C9.65124 21.75 8.41405 21.7486 7.463 21.6294C6.53246 21.5127 5.97129 21.2926 5.53841 20.9198C5.10614 20.5476 4.80838 20.0289 4.56102 19.133C4.30791 18.2162 4.1317 17.0016 3.8852 15.2884L3.60643 13.351C3.41437 12.0163 3.27991 11.0745 3.25432 10.3247C3.22937 9.59337 3.31229 9.11505 3.51167 8.69917C3.71121 8.28294 4.03347 7.91662 4.62194 7.4739C5.22482 7.02034 6.04643 6.52973 7.21074 5.83615L8.59558 5.01121Z" fill="#A9ABB0"/>
</svg>
