<svg width="25" height="25" viewBox="0 0 25 25" fill="none" xmlns="http://www.w3.org/2000/svg">
<path d="M19.5 12.5C19.5 13.0523 19.0523 13.5 18.5 13.5C17.9477 13.5 17.5 13.0523 17.5 12.5C17.5 11.9477 17.9477 11.5 18.5 11.5C19.0523 11.5 19.5 11.9477 19.5 12.5Z" fill="#A9ABB0"/>
<path fill-rule="evenodd" clip-rule="evenodd" d="M10.4436 3.75H13.5564C15.3942 3.74998 16.8498 3.74997 17.989 3.90314C19.1614 4.06076 20.1104 4.39288 20.8588 5.14124C21.7831 6.06563 22.0777 7.30363 22.1847 8.91008C22.7619 9.1641 23.1978 9.7013 23.2458 10.3818C23.2501 10.442 23.25 10.5069 23.25 10.567C23.25 10.5725 23.25 10.5779 23.25 10.5833V14.4167C23.25 14.4221 23.25 14.4275 23.25 14.433C23.25 14.4931 23.2501 14.558 23.2458 14.6182C23.1978 15.2987 22.7619 15.8359 22.1847 16.0899C22.0777 17.6964 21.7831 18.9344 20.8588 19.8588C20.1104 20.6071 19.1614 20.9392 17.989 21.0969C16.8498 21.25 15.3942 21.25 13.5564 21.25H10.4436C8.60583 21.25 7.15019 21.25 6.01098 21.0969C4.83856 20.9392 3.88961 20.6071 3.14124 19.8588C2.39288 19.1104 2.06076 18.1614 1.90314 16.989C1.74997 15.8498 1.74998 14.3942 1.75 12.5564V12.4436C1.74998 10.6058 1.74997 9.15019 1.90314 8.01098C2.06076 6.83856 2.39288 5.88961 3.14124 5.14124C3.88961 4.39288 4.83856 4.06076 6.01098 3.90314C7.15019 3.74997 8.60582 3.74998 10.4436 3.75ZM20.6679 16.25H18.7308C16.5856 16.25 14.75 14.6224 14.75 12.5C14.75 10.3776 16.5856 8.75 18.7308 8.75H20.6679C20.5541 7.40855 20.2966 6.70043 19.7981 6.2019C19.3749 5.77869 18.7952 5.52502 17.7892 5.38976C16.7615 5.25159 15.4068 5.25 13.5 5.25H10.5C8.59318 5.25 7.23851 5.25159 6.21085 5.38976C5.20476 5.52502 4.62511 5.77869 4.2019 6.2019C3.77869 6.62511 3.52502 7.20476 3.38976 8.21085C3.25159 9.23851 3.25 10.5932 3.25 12.5C3.25 14.4068 3.25159 15.7615 3.38976 16.7892C3.52502 17.7952 3.77869 18.3749 4.2019 18.7981C4.62511 19.2213 5.20476 19.475 6.21085 19.6102C7.23851 19.7484 8.59318 19.75 10.5 19.75H13.5C15.4068 19.75 16.7615 19.7484 17.7892 19.6102C18.7952 19.475 19.3749 19.2213 19.7981 18.7981C20.2966 18.2996 20.5541 17.5915 20.6679 16.25ZM5.75 8.5C5.75 8.08579 6.08579 7.75 6.5 7.75H10.5C10.9142 7.75 11.25 8.08579 11.25 8.5C11.25 8.91421 10.9142 9.25 10.5 9.25H6.5C6.08579 9.25 5.75 8.91421 5.75 8.5ZM21.4235 10.2502C21.4032 10.25 21.3766 10.25 21.3333 10.25H18.7308C17.3074 10.25 16.25 11.3087 16.25 12.5C16.25 13.6913 17.3074 14.75 18.7308 14.75H21.3333C21.3766 14.75 21.4032 14.75 21.4235 14.7498C21.436 14.7496 21.4426 14.7495 21.4457 14.7493L21.4479 14.7492C21.6541 14.7367 21.7427 14.5976 21.7495 14.5139C21.7495 14.5139 21.7497 14.5076 21.7498 14.4986C21.75 14.4808 21.75 14.4572 21.75 14.4167V10.5833C21.75 10.5428 21.75 10.5192 21.7498 10.5014C21.7497 10.4924 21.7495 10.4861 21.7495 10.4861C21.7427 10.4024 21.6541 10.2633 21.4479 10.2508C21.4479 10.2508 21.443 10.2504 21.4235 10.2502Z" fill="#A9ABB0"/>
</svg>
