<svg width="25" height="25" viewBox="0 0 25 25" fill="none" xmlns="http://www.w3.org/2000/svg">
<path fill-rule="evenodd" clip-rule="evenodd" d="M6.948 2.25C6.04954 2.24997 5.3003 2.24995 4.70552 2.32991C4.07773 2.41432 3.51093 2.59999 3.05546 3.05546C2.59999 3.51093 2.41432 4.07773 2.32991 4.70552C2.24995 5.3003 2.24997 6.04951 2.25 6.94798V7.052C2.24997 7.95047 2.24995 8.69971 2.32991 9.29448C2.41432 9.92228 2.59999 10.4891 3.05546 10.9445C3.51093 11.4 4.07773 11.5857 4.70552 11.6701C5.3003 11.7501 6.04951 11.75 6.94798 11.75H7.052C7.95047 11.75 8.69971 11.7501 9.29448 11.6701C9.92228 11.5857 10.4891 11.4 10.9445 10.9445C11.4 10.4891 11.5857 9.92228 11.6701 9.29448C11.7501 8.69971 11.75 7.9505 11.75 7.05203V6.94801C11.75 6.04954 11.7501 5.3003 11.6701 4.70552C11.5857 4.07773 11.4 3.51093 10.9445 3.05546C10.4891 2.59999 9.92228 2.41432 9.29448 2.32991C8.69971 2.24995 7.9505 2.24997 7.05203 2.25H6.948ZM4.11612 4.11612C4.24644 3.9858 4.44393 3.87858 4.9054 3.81654C5.38843 3.7516 6.03599 3.75 7 3.75C7.96401 3.75 8.61157 3.7516 9.09461 3.81654C9.55607 3.87858 9.75357 3.9858 9.88389 4.11612C10.0142 4.24644 10.1214 4.44393 10.1835 4.9054C10.2484 5.38843 10.25 6.03599 10.25 7C10.25 7.96401 10.2484 8.61157 10.1835 9.09461C10.1214 9.55607 10.0142 9.75357 9.88389 9.88389C9.75357 10.0142 9.55607 10.1214 9.09461 10.1835C8.61157 10.2484 7.96401 10.25 7 10.25C6.03599 10.25 5.38843 10.2484 4.9054 10.1835C4.44393 10.1214 4.24644 10.0142 4.11612 9.88389C3.9858 9.75357 3.87858 9.55607 3.81654 9.09461C3.7516 8.61157 3.75 7.96401 3.75 7C3.75 6.03599 3.7516 5.38843 3.81654 4.9054C3.87858 4.44393 3.9858 4.24644 4.11612 4.11612Z" fill="#A9ABB0"/>
<path fill-rule="evenodd" clip-rule="evenodd" d="M17.948 13.25C17.0495 13.25 16.3003 13.2499 15.7055 13.3299C15.0777 13.4143 14.5109 13.6 14.0555 14.0555C13.6 14.5109 13.4143 15.0777 13.3299 15.7055C13.2499 16.3003 13.25 17.0495 13.25 17.948V18.052C13.25 18.9505 13.2499 19.6997 13.3299 20.2945C13.4143 20.9223 13.6 21.4891 14.0555 21.9445C14.5109 22.4 15.0777 22.5857 15.7055 22.6701C16.3003 22.7501 17.0495 22.75 17.9479 22.75H18.052C18.9504 22.75 19.6997 22.7501 20.2945 22.6701C20.9223 22.5857 21.4891 22.4 21.9445 21.9445C22.4 21.4891 22.5857 20.9223 22.6701 20.2945C22.7501 19.6997 22.75 18.9505 22.75 18.0521V17.948C22.75 17.0496 22.7501 16.3003 22.6701 15.7055C22.5857 15.0777 22.4 14.5109 21.9445 14.0555C21.4891 13.6 20.9223 13.4143 20.2945 13.3299C19.6997 13.2499 18.9505 13.25 18.052 13.25H17.948ZM15.1161 15.1161C15.2464 14.9858 15.4439 14.8786 15.9054 14.8165C16.3884 14.7516 17.036 14.75 18 14.75C18.964 14.75 19.6116 14.7516 20.0946 14.8165C20.5561 14.8786 20.7536 14.9858 20.8839 15.1161C21.0142 15.2464 21.1214 15.4439 21.1835 15.9054C21.2484 16.3884 21.25 17.036 21.25 18C21.25 18.964 21.2484 19.6116 21.1835 20.0946C21.1214 20.5561 21.0142 20.7536 20.8839 20.8839C20.7536 21.0142 20.5561 21.1214 20.0946 21.1835C19.6116 21.2484 18.964 21.25 18 21.25C17.036 21.25 16.3884 21.2484 15.9054 21.1835C15.4439 21.1214 15.2464 21.0142 15.1161 20.8839C14.9858 20.7536 14.8786 20.5561 14.8165 20.0946C14.7516 19.6116 14.75 18.964 14.75 18C14.75 17.036 14.7516 16.3884 14.8165 15.9054C14.8786 15.4439 14.9858 15.2464 15.1161 15.1161Z" fill="#A9ABB0"/>
<path fill-rule="evenodd" clip-rule="evenodd" d="M6.948 13.25H7.052C7.95048 13.25 8.6997 13.2499 9.29448 13.3299C9.92228 13.4143 10.4891 13.6 10.9445 14.0555C11.4 14.5109 11.5857 15.0777 11.6701 15.7055C11.7501 16.3003 11.75 17.0495 11.75 17.948V18.052C11.75 18.9505 11.7501 19.6997 11.6701 20.2945C11.5857 20.9223 11.4 21.4891 10.9445 21.9445C10.4891 22.4 9.92228 22.5857 9.29448 22.6701C8.69971 22.7501 7.95051 22.75 7.05206 22.75H6.94801C6.04955 22.75 5.30029 22.7501 4.70552 22.6701C4.07773 22.5857 3.51093 22.4 3.05546 21.9445C2.59999 21.4891 2.41432 20.9223 2.32991 20.2945C2.24995 19.6997 2.24997 18.9505 2.25 18.052V17.948C2.24997 17.0495 2.24995 16.3003 2.32991 15.7055C2.41432 15.0777 2.59999 14.5109 3.05546 14.0555C3.51093 13.6 4.07773 13.4143 4.70552 13.3299C5.3003 13.2499 6.04952 13.25 6.948 13.25ZM4.9054 14.8165C4.44393 14.8786 4.24644 14.9858 4.11612 15.1161C3.9858 15.2464 3.87858 15.4439 3.81654 15.9054C3.7516 16.3884 3.75 17.036 3.75 18C3.75 18.964 3.7516 19.6116 3.81654 20.0946C3.87858 20.5561 3.9858 20.7536 4.11612 20.8839C4.24644 21.0142 4.44393 21.1214 4.9054 21.1835C5.38843 21.2484 6.03599 21.25 7 21.25C7.96401 21.25 8.61157 21.2484 9.09461 21.1835C9.55607 21.1214 9.75357 21.0142 9.88389 20.8839C10.0142 20.7536 10.1214 20.5561 10.1835 20.0946C10.2484 19.6116 10.25 18.964 10.25 18C10.25 17.036 10.2484 16.3884 10.1835 15.9054C10.1214 15.4439 10.0142 15.2464 9.88389 15.1161C9.75357 14.9858 9.55607 14.8786 9.09461 14.8165C8.61157 14.7516 7.96401 14.75 7 14.75C6.03599 14.75 5.38843 14.7516 4.9054 14.8165Z" fill="#A9ABB0"/>
<path fill-rule="evenodd" clip-rule="evenodd" d="M17.948 2.25C17.0495 2.24997 16.3003 2.24995 15.7055 2.32991C15.0777 2.41432 14.5109 2.59999 14.0555 3.05546C13.6 3.51093 13.4143 4.07773 13.3299 4.70552C13.2499 5.3003 13.25 6.04952 13.25 6.948V7.052C13.25 7.95048 13.2499 8.6997 13.3299 9.29448C13.4143 9.92228 13.6 10.4891 14.0555 10.9445C14.5109 11.4 15.0777 11.5857 15.7055 11.6701C16.3003 11.7501 17.0495 11.75 17.948 11.75H18.052C18.9505 11.75 19.6997 11.7501 20.2945 11.6701C20.9223 11.5857 21.4891 11.4 21.9445 10.9445C22.4 10.4891 22.5857 9.92228 22.6701 9.29448C22.7501 8.69971 22.75 7.9505 22.75 7.05203V6.94801C22.75 6.04954 22.7501 5.3003 22.6701 4.70552C22.5857 4.07773 22.4 3.51093 21.9445 3.05546C21.4891 2.59999 20.9223 2.41432 20.2945 2.32991C19.6997 2.24995 18.9505 2.24997 18.052 2.25H17.948ZM15.1161 4.11612C15.2464 3.9858 15.4439 3.87858 15.9054 3.81654C16.3884 3.7516 17.036 3.75 18 3.75C18.964 3.75 19.6116 3.7516 20.0946 3.81654C20.5561 3.87858 20.7536 3.9858 20.8839 4.11612C21.0142 4.24644 21.1214 4.44393 21.1835 4.9054C21.2484 5.38843 21.25 6.03599 21.25 7C21.25 7.96401 21.2484 8.61157 21.1835 9.09461C21.1214 9.55607 21.0142 9.75357 20.8839 9.88389C20.7536 10.0142 20.5561 10.1214 20.0946 10.1835C19.6116 10.2484 18.964 10.25 18 10.25C17.036 10.25 16.3884 10.2484 15.9054 10.1835C15.4439 10.1214 15.2464 10.0142 15.1161 9.88389C14.9858 9.75357 14.8786 9.55607 14.8165 9.09461C14.7516 8.61157 14.75 7.96401 14.75 7C14.75 6.03599 14.7516 5.38843 14.8165 4.9054C14.8786 4.44393 14.9858 4.24644 15.1161 4.11612Z" fill="#A9ABB0"/>
</svg>
